<?xml version="1.0" encoding="iso-8859-1"?>
<!-- Generator: Adobe Illustrator 19.0.0, SVG Export Plug-In . SVG Version: 6.00 Build 0)  -->
<svg version="1.1" id="Layer_1" xmlns="http://www.w3.org/2000/svg" xmlns:xlink="http://www.w3.org/1999/xlink" x="0px" y="0px"
	 viewBox="0 0 512 512" style="enable-background:new 0 0 512 512;" xml:space="preserve">
<g>
	<g>
		<path d="M222.531,0C105.342,0,10.004,95.339,10.004,212.526c0,117.188,95.337,212.526,212.526,212.526
			c117.186,0,212.526-95.339,212.526-212.526C435.057,95.339,339.717,0,222.531,0z M222.531,405.732
			c-106.533,0-193.206-86.674-193.206-193.206c0-106.532,86.672-193.206,193.206-193.206c106.532,0,193.206,86.674,193.206,193.206
			C415.736,319.058,329.063,405.732,222.531,405.732z"/>
	</g>
</g>
<g>
	<g>
		<path d="M222.531,67.622c-79.9,0-144.904,65.004-144.904,144.904s65.004,144.904,144.904,144.904
			c79.899,0,144.904-65.004,144.904-144.904S302.43,67.622,222.531,67.622z M222.531,338.11
			c-69.251,0-125.584-56.334-125.584-125.584c0-69.25,56.333-125.584,125.584-125.584c69.249,0,125.584,56.334,125.584,125.584
			C348.114,281.776,291.78,338.11,222.531,338.11z"/>
	</g>
</g>
<g>
	<g>
		<path d="M222.531,154.565c-31.962,0-57.962,26-57.962,57.962c0,31.962,26,57.962,57.962,57.962c31.961,0,57.962-26,57.962-57.962
			C280.492,180.564,254.491,154.565,222.531,154.565z M222.531,251.168c-21.308,0-38.641-17.335-38.641-38.641
			c0-21.306,17.333-38.641,38.641-38.641c21.305,0,38.641,17.335,38.641,38.641C261.172,233.833,243.836,251.168,222.531,251.168z"
			/>
	</g>
</g>
<g>
	<g>
		<path d="M501.971,296.74c-0.094-0.323-0.036-0.651-0.165-0.965c-0.139-0.335-0.262-0.641-0.436-0.955
			c-0.13-0.235-0.2-0.48-0.35-0.706c-0.709-1.061-1.602-1.973-2.664-2.682c-0.226-0.151-0.463-0.253-0.698-0.383
			c-0.315-0.174-0.616-0.363-0.952-0.502c-0.314-0.13-0.639-0.204-0.962-0.299c-0.279-0.083-0.546,0.12-0.836,0.063
			c-0.624-0.124-1.256,0.12-1.889,0.12h-28.981c-5.335,0-9.66,4.325-9.66,9.66s4.325,9.66,9.66,9.66h5.659l-142.81,142.499
			l-32.415-16.363c-4.788-2.401-10.579-0.525-12.962,4.243c-2.387,4.775-0.453,10.537,4.321,12.924l35.764,17.857l17.877,35.754
			c1.693,3.387,5.104,5.34,8.651,5.335c1.449,0,2.924-0.328,4.311-1.021c4.775-2.387,6.709-8.19,4.322-12.963l-16.743-32.416
			l142.275-142.81v5.66c0,5.335,4.325,9.66,9.66,9.66s9.66-4.325,9.66-9.66v-28.981c0-0.634,0.468-1.268,0.344-1.891
			C501.895,297.287,502.054,297.02,501.971,296.74z"/>
	</g>
</g>
<g>
</g>
<g>
</g>
<g>
</g>
<g>
</g>
<g>
</g>
<g>
</g>
<g>
</g>
<g>
</g>
<g>
</g>
<g>
</g>
<g>
</g>
<g>
</g>
<g>
</g>
<g>
</g>
<g>
</g>
</svg>
